<mxfile host="app.diagrams.net" agent="Mozilla/5.0 (X11; Linux x86_64; rv:128.0) Gecko/20100101 Firefox/128.0" version="26.0.11">
  <diagram name="Página-1" id="hN-Vsxm9EhQ9dVY-8S73">
    <mxGraphModel dx="1434" dy="778" grid="1" gridSize="10" guides="1" tooltips="1" connect="1" arrows="1" fold="1" page="1" pageScale="1" pageWidth="827" pageHeight="1169" math="0" shadow="0">
      <root>
        <mxCell id="0" />
        <mxCell id="1" parent="0" />
        <mxCell id="I7XTUtmCJ5JrVIJJ6Jmk-9" style="edgeStyle=orthogonalEdgeStyle;rounded=0;orthogonalLoop=1;jettySize=auto;html=1;entryX=0.5;entryY=0;entryDx=0;entryDy=0;" edge="1" parent="1" source="I7XTUtmCJ5JrVIJJ6Jmk-1" target="I7XTUtmCJ5JrVIJJ6Jmk-3">
          <mxGeometry relative="1" as="geometry" />
        </mxCell>
        <mxCell id="I7XTUtmCJ5JrVIJJ6Jmk-1" value="Inicio" style="strokeWidth=2;html=1;shape=mxgraph.flowchart.start_1;whiteSpace=wrap;" vertex="1" parent="1">
          <mxGeometry x="350" y="40" width="100" height="60" as="geometry" />
        </mxCell>
        <mxCell id="I7XTUtmCJ5JrVIJJ6Jmk-2" value="Fin" style="strokeWidth=2;html=1;shape=mxgraph.flowchart.terminator;whiteSpace=wrap;" vertex="1" parent="1">
          <mxGeometry x="350" y="890" width="100" height="60" as="geometry" />
        </mxCell>
        <mxCell id="I7XTUtmCJ5JrVIJJ6Jmk-10" style="edgeStyle=orthogonalEdgeStyle;rounded=0;orthogonalLoop=1;jettySize=auto;html=1;" edge="1" parent="1" source="I7XTUtmCJ5JrVIJJ6Jmk-3" target="I7XTUtmCJ5JrVIJJ6Jmk-4">
          <mxGeometry relative="1" as="geometry" />
        </mxCell>
        <mxCell id="I7XTUtmCJ5JrVIJJ6Jmk-3" value="El usuario escoge con 1 o 2 si soluciona con termino no linealidad cuadratico o cubico" style="rounded=1;whiteSpace=wrap;html=1;absoluteArcSize=1;arcSize=14;strokeWidth=2;" vertex="1" parent="1">
          <mxGeometry x="310" y="140" width="180" height="100" as="geometry" />
        </mxCell>
        <mxCell id="I7XTUtmCJ5JrVIJJ6Jmk-4" value="Se soluciona con RK4 la ecuación obteniendo datos de tiempo y posición" style="rounded=1;whiteSpace=wrap;html=1;absoluteArcSize=1;arcSize=14;strokeWidth=2;" vertex="1" parent="1">
          <mxGeometry x="350" y="290" width="100" height="100" as="geometry" />
        </mxCell>
        <mxCell id="I7XTUtmCJ5JrVIJJ6Jmk-12" style="edgeStyle=orthogonalEdgeStyle;rounded=0;orthogonalLoop=1;jettySize=auto;html=1;entryX=0.5;entryY=0;entryDx=0;entryDy=0;" edge="1" parent="1" source="I7XTUtmCJ5JrVIJJ6Jmk-5" target="I7XTUtmCJ5JrVIJJ6Jmk-6">
          <mxGeometry relative="1" as="geometry" />
        </mxCell>
        <mxCell id="I7XTUtmCJ5JrVIJJ6Jmk-5" value="duffing.txt" style="strokeWidth=2;html=1;shape=mxgraph.flowchart.database;whiteSpace=wrap;" vertex="1" parent="1">
          <mxGeometry x="370" y="430" width="60" height="60" as="geometry" />
        </mxCell>
        <mxCell id="I7XTUtmCJ5JrVIJJ6Jmk-6" value="se carga el dataset y se realiza derivación numérica (diferencias centradas)" style="rounded=1;whiteSpace=wrap;html=1;absoluteArcSize=1;arcSize=14;strokeWidth=2;" vertex="1" parent="1">
          <mxGeometry x="350" y="520" width="100" height="100" as="geometry" />
        </mxCell>
        <mxCell id="I7XTUtmCJ5JrVIJJ6Jmk-14" style="edgeStyle=orthogonalEdgeStyle;rounded=0;orthogonalLoop=1;jettySize=auto;html=1;entryX=0.5;entryY=0;entryDx=0;entryDy=0;" edge="1" parent="1" source="I7XTUtmCJ5JrVIJJ6Jmk-7" target="I7XTUtmCJ5JrVIJJ6Jmk-8">
          <mxGeometry relative="1" as="geometry" />
        </mxCell>
        <mxCell id="I7XTUtmCJ5JrVIJJ6Jmk-7" value="duffing.txt" style="strokeWidth=2;html=1;shape=mxgraph.flowchart.database;whiteSpace=wrap;" vertex="1" parent="1">
          <mxGeometry x="370" y="660" width="60" height="60" as="geometry" />
        </mxCell>
        <mxCell id="I7XTUtmCJ5JrVIJJ6Jmk-8" value="Se lee el dataset y se grafican con gnuplot:&lt;br&gt;(X,t), (v,t), (a,t) y (x,v) que es el diagrama de fase" style="rounded=1;whiteSpace=wrap;html=1;absoluteArcSize=1;arcSize=14;strokeWidth=2;" vertex="1" parent="1">
          <mxGeometry x="350" y="750" width="100" height="100" as="geometry" />
        </mxCell>
        <mxCell id="I7XTUtmCJ5JrVIJJ6Jmk-11" style="edgeStyle=orthogonalEdgeStyle;rounded=0;orthogonalLoop=1;jettySize=auto;html=1;entryX=0.5;entryY=0;entryDx=0;entryDy=0;entryPerimeter=0;" edge="1" parent="1" source="I7XTUtmCJ5JrVIJJ6Jmk-4" target="I7XTUtmCJ5JrVIJJ6Jmk-5">
          <mxGeometry relative="1" as="geometry" />
        </mxCell>
        <mxCell id="I7XTUtmCJ5JrVIJJ6Jmk-13" style="edgeStyle=orthogonalEdgeStyle;rounded=0;orthogonalLoop=1;jettySize=auto;html=1;entryX=0.5;entryY=0;entryDx=0;entryDy=0;entryPerimeter=0;" edge="1" parent="1" source="I7XTUtmCJ5JrVIJJ6Jmk-6" target="I7XTUtmCJ5JrVIJJ6Jmk-7">
          <mxGeometry relative="1" as="geometry" />
        </mxCell>
        <mxCell id="I7XTUtmCJ5JrVIJJ6Jmk-15" style="edgeStyle=orthogonalEdgeStyle;rounded=0;orthogonalLoop=1;jettySize=auto;html=1;entryX=0.5;entryY=0;entryDx=0;entryDy=0;entryPerimeter=0;" edge="1" parent="1" source="I7XTUtmCJ5JrVIJJ6Jmk-8" target="I7XTUtmCJ5JrVIJJ6Jmk-2">
          <mxGeometry relative="1" as="geometry" />
        </mxCell>
      </root>
    </mxGraphModel>
  </diagram>
</mxfile>
